<?xml version="1.0" encoding="UTF-8" standalone="no"?>
<svg
   xmlns:dc="http://purl.org/dc/elements/1.1/"
   xmlns:cc="http://creativecommons.org/ns#"
   xmlns:rdf="http://www.w3.org/1999/02/22-rdf-syntax-ns#"
   xmlns:svg="http://www.w3.org/2000/svg"
   xmlns="http://www.w3.org/2000/svg"
   id="svg8"
   version="1.1"
   viewBox="0 0 135 48"
   height="48px"
   width="135px">
  <defs
     id="defs2">
    <filter
       id="filter5288"
       style="color-interpolation-filters:sRGB">
      <feFlood
         id="feFlood5278"
         result="flood"
         flood-color="rgb(0,0,0)"
         flood-opacity="1" />
      <feComposite
         id="feComposite5280"
         result="composite1"
         operator="in"
         in2="SourceGraphic"
         in="flood" />
      <feOffset
         id="feOffset5284"
         result="offset"
         dy="1"
         dx="1" />
      <feComposite
         id="feComposite5286"
         result="composite2"
         operator="over"
         in2="offset"
         in="SourceGraphic" />
    </filter>
  </defs>
  <metadata
     id="metadata5">
    <rdf:RDF>
      <cc:Work
         rdf:about="">
        <dc:format>image/svg+xml</dc:format>
        <dc:type
           rdf:resource="http://purl.org/dc/dcmitype/StillImage" />
        <dc:title></dc:title>
      </cc:Work>
    </rdf:RDF>
  </metadata>
  <path
     d="M 5e-7,2.0000005 V 5.0000001e-7 H 135 V 48.000001 H 5e-7 V 2.0000005 h 3 V 44.000001 h 1 v 1 H 46 v -14 h -1 v -1 H 32 v -13 h -1 v -1 H 18 V 3.0000005 h -1 v -1 H 3.0000005 Z"
     style="fill:#ffffff;fill-rule:evenodd;"
     id="path4794" />
  <g
     id="text5048"
     style="fill:#333366;filter:url(#filter5288)"
     aria-label="CSS">
    <path
       id="path4503"
       d="m 65.334573,13.637442 q -3.400309,0 -5.305447,2.797417 -1.905138,2.773302 -1.905138,7.668783 0,10.176812 7.74113,10.176812 2.339219,0 4.533745,-0.651123 2.194526,-0.651123 4.413168,-1.567519 v 8.054634 q -4.413168,1.953369 -9.983887,1.953369 -7.982286,0 -12.25076,-4.630208 -4.244358,-4.630209 -4.244358,-13.384197 0,-5.474256 2.049832,-9.622151 2.073948,-4.147895 5.932455,-6.3665368 3.882622,-2.2427572 9.115723,-2.2427572 5.715413,0 10.924397,2.4839138 l -2.917995,7.4999732 q -1.95337,-0.916396 -3.906739,-1.543403 -1.953369,-0.627007 -4.196126,-0.627007 z" />
    <path
       id="path4505"
       d="m 102.71546,30.880145 q 0,3.279731 -1.66398,5.835991 -1.663982,2.532146 -4.799019,3.95497 -3.135037,1.398709 -7.355279,1.398709 -3.520888,0 -5.908339,-0.482313 -2.387451,-0.50643 -4.967828,-1.736329 v -8.488715 q 2.725071,1.398709 5.667182,2.194526 2.942112,0.771701 5.40191,0.771701 2.122179,0 3.110921,-0.72347 0.988743,-0.747586 0.988743,-1.905138 0,-0.72347 -0.409967,-1.254014 -0.38585,-0.554661 -1.27813,-1.109321 -0.868164,-0.554661 -4.67844,-2.266873 -3.44854,-1.567518 -5.184869,-3.038574 -1.712212,-1.471056 -2.55626,-3.376194 -0.819933,-1.905138 -0.819933,-4.50963 0,-4.871365 3.545003,-7.5964355 3.545003,-2.7250705 9.74273,-2.7250705 5.474257,0 11.165555,2.5321452 l -2.917996,7.3552788 q -4.943712,-2.266873 -8.536947,-2.266873 -1.856906,0 -2.700955,0.651123 -0.844048,0.651123 -0.844048,1.61575 0,1.036974 1.061089,1.856907 1.085205,0.819932 5.835992,2.990342 4.557862,2.049832 6.318305,4.413168 1.78456,2.33922 1.78456,5.908339 z" />
    <path
       id="path4507"
       d="m 129.26841,30.880145 q 0,3.279731 -1.66398,5.835991 -1.66398,2.532146 -4.79902,3.95497 -3.13503,1.398709 -7.35528,1.398709 -3.52088,0 -5.90834,-0.482313 -2.38745,-0.50643 -4.96782,-1.736329 v -8.488715 q 2.72507,1.398709 5.66718,2.194526 2.94211,0.771701 5.40191,0.771701 2.12218,0 3.11092,-0.72347 0.98874,-0.747586 0.98874,-1.905138 0,-0.72347 -0.40996,-1.254014 -0.38585,-0.554661 -1.27813,-1.109321 -0.86817,-0.554661 -4.67844,-2.266873 -3.44854,-1.567518 -5.18487,-3.038574 -1.71222,-1.471056 -2.55626,-3.376194 -0.81994,-1.905138 -0.81994,-4.50963 0,-4.871365 3.54501,-7.5964355 3.545,-2.7250705 9.74273,-2.7250705 5.47425,0 11.16555,2.5321452 l -2.91799,7.3552788 q -4.94372,-2.266873 -8.53695,-2.266873 -1.85691,0 -2.70096,0.651123 -0.84404,0.651123 -0.84404,1.61575 0,1.036974 1.06109,1.856907 1.0852,0.819932 5.83599,2.990342 4.55786,2.049832 6.3183,4.413168 1.78456,2.33922 1.78456,5.908339 z" />
  </g>
  <!--
  <text
     xml:space="preserve"
     style="font-size:10px;line-height:100%;font-family:'Open Sans',sans-serif;-inkscape-font-specification:'Open Sans, Ultra-Bold';letter-spacing:-2px;fill:#333366;filter:url(#filter5288)"
     x="45.824997"
     y="3.5875"
     id="text5048"><tspan
       style="font-weight:800;font-size:49.38888931px"
       y="41.587502"
       x="45.824997"
       id="tspan5046">CSS</tspan></text>
  -->
  <rect
     height="14"
     id="rect5332"
     style="fill:#cccccc;fill-opacity:0.5"
     width="14"
     x="3"
     y="2"
     />
  <rect
     height="14"
     id="rect5332-2"
     style="fill:#cccccc;fill-opacity:0.5"
     width="14"
     x="17"
     y="16"
     />
  <rect
     height="14"
     id="rect5332-2-6"
     style="fill:#cccccc;fill-opacity:0.5"
     width="14"
     x="31"
     y="30"
     />
  <rect
     height="14"
     id="rect5332-2-6-0"
     style="fill:#333333;fill-opacity:0.5"
     width="14"
     x="3"
     y="16"
     />
  <rect
     height="14"
     id="rect5332-2-6-0-1"
     style="fill:#333333;fill-opacity:0.5"
     width="14"
     x="17"
     y="30"
     />
  <rect
     height="14"
     id="rect5332-2-6-0-1-4"
     style="fill:#000000"
     width="14"
     x="3"
     y="30"
     />
  <rect
     height="13"
     id="rect4721"
     style="fill:#000000"
     width="1"
     x="17"
     y="3"
     />
  <rect
     height="13"
     id="rect4721-4"
     style="fill:#000000"
     width="1"
     x="45"
     y="31"
     />
  <rect
     height="13"
     id="rect4721-4-6"
     style="fill:#000000"
     width="1"
     x="31"
     y="17"
     />
  <rect
     height="1"
     id="rect4759"
     style="fill:#000000"
     width="42"
     x="4"
     y="44"
     />
  <path
     d="M 134,1 V 47 H 1 L 2,46 H 133 V 2 Z"
     id="path4558"
     style="fill:#999999;fill-rule:evenodd"
     />
  <path
     d="M 135,0 V 48 H 0 L 1,47 134,47 134,1 Z"
     id="path4738"
     style="fill:#333333;fill-rule:evenodd"
     />
  <path
     d="M 135,0 H 0 V 48 L 1,47 V 1 L 134,1 Z"
     id="path4560"
     style="fill:#cccccc;fill-rule:evenodd"
     />
</svg>
